<?xml version="1.0" encoding="utf-8"?>
<svg width="250" height="50" viewBox="0 0 250 50" fill="none" stroke="none" version="1.1" xmlns:xlink="http://www.w3.org/1999/xlink" xmlns="http://www.w3.org/2000/svg">
  <defs>
    <path id="path_1" d="M250 0L250 0L250 50L0 50L0 0L250 0Z" />
    <rect id="rect_2" x="0" y="0" width="250" height="50" />
    <clipPath id="clip_path_3">
      <use xlink:href="#rect_2" />
    </clipPath>
    <path id="path_4" d="M25 0L25 0L25 24L0 24L0 0L25 0Z" />
    <rect id="rect_5" x="0" y="0" width="25" height="24" />
    <clipPath id="clip_path_6">
      <use xlink:href="#rect_5" />
    </clipPath>
  </defs>
  <g id="Github" opacity="1" clip-path="url(#clip_path_3)">
    <g>
      <use xlink:href="#path_1" style="fill:#000000;fill-rule:evenodd;mix-blend-mode:normal;" />
      <g>
        <g id="github-mark-white" opacity="1" clip-path="url(#clip_path_6)" transform="translate(113 13)">
          <g>
            <use xlink:href="#path_4" style="mix-blend-mode:normal;" />
            <g>
              <path id="Path" d="M12.4628 0C5.57117 0 0 5.5 0 12.3042C0 17.7432 3.56964 22.3473 8.52168 23.9768C9.14082 24.0993 9.3676 23.712 9.3676 23.3862C9.3676 23.101 9.34719 22.1232 9.34719 21.1045C5.88036 21.838 5.15842 19.6378 5.15842 19.6378C4.60127 18.2118 3.77576 17.8453 3.77576 17.8453C2.64107 17.0915 3.85842 17.0915 3.85842 17.0915C5.11709 17.173 5.77755 18.3545 5.77755 18.3545C6.89158 20.2285 8.68673 19.699 9.40893 19.373C9.51199 18.5785 9.84235 18.0285 10.1931 17.723C7.42806 17.4378 4.51888 16.3785 4.51888 11.6523C4.51888 10.3078 5.01378 9.20775 5.79796 8.35225C5.67423 8.04675 5.24082 6.7835 5.92194 5.09275C5.92194 5.09275 6.97423 4.76675 9.34694 6.35575C10.3628 6.08642 11.4104 5.94941 12.4628 5.94825C13.5151 5.94825 14.5878 6.091 15.5783 6.35575C17.9513 4.76675 19.0036 5.09275 19.0036 5.09275C19.6847 6.7835 19.251 8.04675 19.1273 8.35225C19.9321 9.20775 20.4066 10.3078 20.4066 11.6523C20.4066 16.3785 17.4974 17.4173 14.7117 17.723C15.1658 18.11 15.5577 18.8433 15.5577 20.0045C15.5577 21.6545 15.5372 22.9788 15.5372 23.386C15.5372 23.712 15.7643 24.0993 16.3832 23.977C21.3352 22.347 24.9048 17.7433 24.9048 12.3043C24.9253 5.5 19.3337 0 12.4628 0C12.4628 0 12.4628 0 12.4628 0Z" style="fill:#FFFFFF;fill-rule:evenodd;mix-blend-mode:normal;" />
            </g>
          </g>
        </g>
      </g>
    </g>
  </g>
</svg>