<?xml version="1.0" encoding="utf-8"?>
<svg width="250" height="50" viewBox="0 0 250 50" fill="none" stroke="none" version="1.1" xmlns:xlink="http://www.w3.org/1999/xlink" xmlns="http://www.w3.org/2000/svg">
  <defs>
    <path id="path_1" d="M250 0L250 0L250 50L0 50L0 0L250 0Z" />
    <rect id="rect_2" x="0" y="0" width="250" height="50" />
    <clipPath id="clip_path_3">
      <use xlink:href="#rect_2" />
    </clipPath>
    <path id="path_4" d="M94 0L94 0L94 24L0 24L0 0L94 0Z" />
    <rect id="rect_5" x="0" y="0" width="94" height="24" />
    <clipPath id="clip_path_6">
      <use xlink:href="#rect_5" />
    </clipPath>
  </defs>
  <g id="Itchio" opacity="1" clip-path="url(#clip_path_3)">
    <g>
      <use xlink:href="#path_1" style="fill:#FA5C5C;fill-rule:evenodd;mix-blend-mode:normal;" />
      <g>
        <g id="logo-black-new" opacity="1" clip-path="url(#clip_path_6)" transform="translate(78 13)">
          <g>
            <use xlink:href="#path_4" style="mix-blend-mode:normal;" />
            <g>
              <path id="Shape" d="M0.0764046 17.4062L0.0764046 4.95898L4.29973 4.95898L4.29973 17.4062L0.0764065 17.4062L0.0764046 17.4062ZM2.21346 3.94674C1.50104 3.94674 0.949814 3.76963 0.559793 3.41541C0.186598 3.06127 0 2.58902 0 1.99865C0 1.44206 0.186556 0.969806 0.559671 0.581883C0.949772 0.193961 1.50099 0 2.21334 0C2.92576 0 3.46856 0.193961 3.84176 0.581883C4.23186 0.969806 4.42691 1.44206 4.42691 1.99865C4.42691 2.58902 4.23186 3.06127 3.84176 3.41541C3.46864 3.76963 2.92592 3.94674 2.21358 3.94674C2.21358 3.94674 2.21346 3.94674 2.21346 3.94674ZM10.6014 17.6595C9.38003 17.6595 8.45554 17.339 7.82788 16.6979C7.21737 16.0403 6.91212 15.1295 6.91212 13.9656C6.91212 13.9656 6.91212 8.07079 6.91212 8.07079L5.23298 8.07079L5.23298 4.95869L6.91212 4.95869L6.91212 1.92271L11.1355 1.92271L11.1355 4.95893L13.8835 4.95893L13.8835 8.07043L11.1352 8.07043C11.1352 8.07043 11.1352 13.3582 11.1352 13.3582C11.1352 13.7462 11.2116 14.0245 11.3643 14.1931C11.5339 14.3449 11.7883 14.4208 12.1274 14.4208C12.5854 14.4208 13.0858 14.2184 13.6286 13.8136C13.6286 13.8136 14.5955 16.5714 14.5955 16.5714C14.1038 16.9092 13.544 17.179 12.9164 17.3809C12.2887 17.5667 11.5171 17.6596 10.6015 17.6596C10.6015 17.6596 10.6014 17.6595 10.6014 17.6595ZM20.9893 17.6595C19.0556 17.6595 17.529 17.1114 16.4096 16.0151C15.3071 14.9187 14.7559 13.3247 14.7559 11.2333C14.7559 9.71527 15.0697 8.44183 15.6972 7.41295C16.3418 6.35045 17.1478 5.6336 18.1152 5.26241C19.1327 4.87449 20.0742 4.68052 20.9396 4.68052C22.0251 4.68052 22.9326 4.89978 23.6622 5.3383C24.3917 5.76 24.926 6.22385 25.2649 6.72985C25.6216 7.23576 25.8759 7.63213 26.028 7.91895C26.028 7.91895 23.1028 9.79116 23.1028 9.79116C22.8319 9.23457 22.5351 8.79602 22.2123 8.4755C21.8904 8.15506 21.5006 7.99484 21.0427 7.99484C20.3981 7.99484 19.8894 8.24779 19.5165 8.75371C19.1436 9.25978 18.9572 10.0273 18.9572 11.0561C18.9572 12.1693 19.1776 12.9873 19.6184 13.5101C20.0592 14.0331 20.6869 14.2946 21.5014 14.2946C22.146 14.2946 22.6802 14.1763 23.1041 13.9399C23.5449 13.7034 23.9605 13.3998 24.351 13.029C24.351 13.029 25.6996 16.1658 25.6996 16.1658C25.2924 16.5028 24.6902 16.8402 23.893 17.178C23.0959 17.4982 22.1291 17.6582 20.9926 17.6582C20.9926 17.6582 20.9893 17.6595 20.9893 17.6595ZM27.1344 17.4062L27.1344 0.505859L31.3832 0.505859C31.3832 0.505859 31.3832 5.64183 31.3832 5.64183C31.7393 5.38879 32.1718 5.16953 32.6806 4.98406C33.1894 4.78161 33.8 4.68039 34.5126 4.68039C36.0052 4.68039 37.1161 5.10225 37.8454 5.94598C38.5917 6.78971 38.9649 7.97889 38.9649 9.51353C38.9649 9.51353 38.9649 17.4075 38.9649 17.4075L34.7161 17.4075C34.7161 17.4075 34.7161 10.019 34.7161 10.019C34.7161 9.31124 34.5806 8.79688 34.3097 8.47596C34.0387 8.13895 33.6824 7.97045 33.2408 7.97045C32.8679 7.97045 32.5201 8.0549 32.1974 8.22381C31.8755 8.39271 31.6041 8.57006 31.3833 8.75586C31.3833 8.75586 31.3833 17.4087 31.3833 17.4087L27.1345 17.4087L27.1344 17.4062ZM42.2272 17.6596C41.5486 17.6596 41.0143 17.4656 40.6243 17.0777C40.2342 16.6898 40.0391 16.1922 40.0391 15.585C40.0391 14.9778 40.2342 14.4718 40.6243 14.067C41.0144 13.6622 41.5486 13.4598 42.227 13.4598C42.8716 13.4598 43.389 13.6622 43.7791 14.067C44.1698 14.4719 44.3651 14.9778 44.3651 15.585C44.3651 16.1923 44.1702 16.6898 43.7803 17.0777C43.4074 17.4656 42.8902 17.6596 42.2286 17.6596C42.2286 17.6596 42.2272 17.6596 42.2272 17.6596ZM45.3513 17.4062L45.3513 4.95898L49.5746 4.95898L49.5746 17.4062L45.3513 17.4062L45.3513 17.4062ZM47.4879 3.94926C46.7753 3.94926 46.224 3.77215 45.834 3.41792C45.4609 3.0637 45.2743 2.59145 45.2743 2.00116C45.2743 1.44457 45.4609 0.972317 45.834 0.584394C46.2241 0.196472 46.7753 0.00251126 47.4877 0.00251126C48.2001 0.00251126 48.7429 0.196472 49.1161 0.584394C49.5062 0.972317 49.7012 1.44457 49.7012 2.00116C49.7012 2.59153 49.5062 3.06378 49.1161 3.41792C48.743 3.77215 48.2002 3.94926 47.4879 3.94926C47.4879 3.94926 47.4879 3.94926 47.4879 3.94926ZM57.0325 17.6595C56.0486 17.6595 55.1751 17.4993 54.4119 17.1789C53.6486 16.8416 52.9956 16.3862 52.4528 15.8127C51.9271 15.2223 51.52 14.5308 51.2316 13.738C50.9602 12.9284 50.8245 12.0513 50.8245 11.1067C50.8245 9.70686 51.1299 8.48406 51.7405 7.43829C52.368 6.4094 53.1482 5.69256 54.0812 5.28774C55.031 4.88293 56.0147 4.68052 57.0324 4.68052C58.4907 4.68052 59.6947 5.01785 60.6442 5.69252C61.6108 6.36718 62.2894 7.2105 62.6801 8.2225C63.0699 9.23449 63.2649 10.1959 63.2649 11.1067C63.2649 12.0512 63.1205 12.9283 62.8317 13.738C62.5608 14.5307 62.1535 15.2222 61.61 15.8126C61.0843 16.386 60.4311 16.8417 59.6506 17.1795C58.8874 17.5004 58.0138 17.6609 57.03 17.6609C57.03 17.6609 57.0325 17.6595 57.0325 17.6595ZM57.0326 14.421C57.7449 14.421 58.2622 14.1259 58.5843 13.5355C58.9066 12.9282 59.0678 12.1187 59.0678 11.1069C59.0678 10.1454 58.8982 9.37789 58.559 8.80441C58.2201 8.23093 57.7113 7.9442 57.0327 7.9442C56.3711 7.9442 55.8708 8.23093 55.5319 8.80441C55.193 9.37789 55.0236 10.1453 55.0236 11.1067C55.0236 12.1187 55.1849 12.9283 55.5076 13.5354C55.8473 14.1257 56.3561 14.4209 57.0339 14.4209C57.0339 14.4209 57.0326 14.421 57.0326 14.421Z" style="fill:#FFFFFF;mix-blend-mode:normal;" transform="translate(30.734 3.601)" />
              <path id="Shape" d="M3.49756 0.148405C2.3275 0.839233 0.0220812 3.47309 0 4.1638C0 4.1638 0 5.3073 0 5.3073C0 6.75676 1.36248 8.03055 2.59927 8.03055C4.08429 8.03055 5.32181 6.80646 5.32205 5.35375C5.32205 6.80634 6.5171 8.03055 8.00249 8.03055C9.48775 8.03055 10.6445 6.80646 10.6445 5.35375C10.6445 6.80634 11.9147 8.03055 13.3998 8.03055C13.3998 8.03055 13.4264 8.03055 13.4264 8.03055C14.9115 8.03055 16.183 6.80646 16.183 5.35375C16.183 6.80634 17.3392 8.03055 18.8242 8.03055C20.3092 8.03055 21.5043 6.80646 21.5043 5.35375C21.5043 6.80634 22.7418 8.03055 24.2268 8.03055C25.4631 8.03055 26.8256 6.75688 26.8256 5.3073C26.8256 5.3073 26.8256 4.1638 26.8256 4.1638C26.8025 3.47309 24.4974 0.839233 23.3278 0.148404C19.6917 0.0213624 17.1693 -0.00047486 13.4119 7.72389e-06C9.65578 0.000249404 4.53222 0.0585222 3.49732 0.148405C3.49732 0.148405 3.49756 0.148405 3.49756 0.148405ZM10.6258 7.34794C10.4838 7.59408 10.3079 7.8193 10.1032 8.01705C9.5221 8.58377 8.74047 8.90091 7.92658 8.90019C7.07913 8.90019 6.30616 8.56237 5.74564 8.0168C5.54303 7.81894 5.38895 7.60733 5.247 7.36096C5.247 7.36096 5.247 7.36145 5.247 7.36145C5.10626 7.60829 4.9085 7.81967 4.70589 8.01777C4.12332 8.5844 3.34058 8.90133 2.52567 8.90055C2.42376 8.90055 2.31821 8.8728 2.23207 8.84384C2.11317 10.0805 2.06221 11.2616 2.04474 12.1243C2.04474 12.1243 2.04474 12.1291 2.04474 12.1291C2.04231 12.567 2.04049 12.9266 2.03819 13.426C2.06124 16.0212 1.77977 21.8352 3.18835 23.2636C5.37099 23.7704 9.38734 24.0008 13.4173 24.002C13.4173 24.002 13.4176 24.002 13.4176 24.002C17.4473 24.0008 21.4639 23.7704 23.6466 23.2649C25.0551 21.8361 24.7737 16.0221 24.7967 13.4279C24.7947 12.9284 24.7926 12.5686 24.7903 12.1309C24.7903 12.1309 24.7903 12.1261 24.7903 12.1261C24.7721 11.2644 24.7217 10.0829 24.6022 8.8465C24.5161 8.87545 24.4097 8.90356 24.3074 8.90356C23.4924 8.90433 22.7094 8.58746 22.1266 8.02091C21.9234 7.82244 21.7262 7.61107 21.5851 7.36458C21.5851 7.36458 21.5845 7.36374 21.5845 7.36374C21.4429 7.60986 21.2887 7.82184 21.0855 8.01958C20.525 8.56491 19.7521 8.90272 18.9049 8.90272C18.0577 8.90272 17.2889 8.56491 16.7284 8.01958C16.5238 7.82167 16.3478 7.59648 16.2054 7.35047C16.0651 7.59636 15.8909 7.82157 15.6879 8.01958C15.105 8.58653 14.3218 8.90361 13.5064 8.90272C13.4768 8.90272 13.447 8.90151 13.4179 8.9003C13.4179 8.9003 13.4169 8.9003 13.4169 8.9003C13.3874 8.90151 13.3579 8.90272 13.3283 8.90272C12.4808 8.90272 11.7078 8.5649 11.1471 8.01958C10.944 7.82171 10.7696 7.59657 10.6291 7.35071C10.6291 7.35071 10.6258 7.34794 10.6258 7.34794ZM8.38585 10.2282L8.38561 10.2292C8.38561 10.2292 8.38804 10.2292 8.38804 10.2292C9.27492 10.2311 10.0635 10.2292 11.039 11.2888C11.8082 11.2089 12.6102 11.1687 13.4145 11.17C13.4145 11.17 13.4158 11.17 13.4158 11.17C14.2201 11.1688 15.0221 11.2098 15.7913 11.2895C16.768 10.2302 17.5554 10.2326 18.4423 10.2302C18.4423 10.2302 18.4447 10.2302 18.4447 10.2302C18.4447 10.2302 18.4447 10.229 18.4447 10.229C18.8645 10.229 20.54 10.229 21.7083 13.4913C21.7083 13.4913 22.9638 17.9673 22.9638 17.9673C23.8938 21.2972 22.6662 21.3792 21.1351 21.3816C18.8639 21.2984 17.6069 19.6576 17.6069 18.018C16.35 18.2231 14.8832 18.3256 13.417 18.3256C13.417 18.3256 13.4164 18.3256 13.4164 18.3256C11.95 18.3256 10.4837 18.2231 9.227 18.018C9.227 19.6576 7.97007 21.2972 5.69911 21.3816C4.16798 21.3792 2.94017 21.2972 3.87037 17.9685C3.87037 17.9685 5.12488 13.4925 5.12488 13.4925C6.29324 10.2302 7.96995 10.2302 8.38852 10.2302C8.38852 10.2302 8.38585 10.2282 8.38585 10.2282ZM13.4136 12.7919C13.4136 12.7919 13.4136 12.7927 13.4136 12.7927C13.4115 12.7947 11.0233 14.9759 10.594 15.7517C10.594 15.7517 12.1579 15.6894 12.1579 15.6894C12.1579 15.6894 12.1579 17.0455 12.1579 17.0455C12.1579 17.1091 12.7856 17.0833 13.4136 17.0545C13.4136 17.0545 13.4144 17.0545 13.4144 17.0545C14.0425 17.0834 14.6702 17.1091 14.6702 17.0456C14.6702 17.0456 14.6702 15.6896 14.6702 15.6896C14.6702 15.6896 16.234 15.7516 16.234 15.7516C15.8048 14.9758 13.4144 12.7927 13.4144 12.7927C13.4144 12.7927 13.4144 12.792 13.4144 12.792L13.4142 12.7922L13.4136 12.7919Z" style="fill:#FFFFFF;mix-blend-mode:normal;" transform="translate(0.001 -0)" />
            </g>
          </g>
        </g>
      </g>
    </g>
  </g>
</svg>