<?xml version="1.0" encoding="utf-8"?>
<svg width="250" height="50" viewBox="0 0 250 50" fill="none" stroke="none" version="1.1" xmlns:xlink="http://www.w3.org/1999/xlink" xmlns="http://www.w3.org/2000/svg">
  <defs>
    <path id="path_1" d="M250 0L250 0L250 50L0 50L0 0L250 0Z" />
    <rect id="rect_2" x="0" y="0" width="250" height="50" />
    <clipPath id="clip_path_3">
      <use xlink:href="#rect_2" />
    </clipPath>
  </defs>
  <g id="MyWebsite" opacity="1" clip-path="url(#clip_path_3)">
    <g>
      <use xlink:href="#path_1" style="fill:#F88922;fill-rule:evenodd;mix-blend-mode:normal;" />
      <g>
        <g style="mix-blend-mode:normal;" transform="matrix(0 1 -1 0 142 15)">
          <path d="M6.38672 14.7618Q6.38672 15.8091 5.68359 16.4683Q4.98047 17.1275 3.9917 17.1275Q2.97363 17.1275 2.27783 16.4683Q1.58936 15.8091 1.58936 14.7618Q1.58936 13.7071 2.27783 13.0332Q2.97363 12.3594 3.9917 12.3594Q4.98047 12.3594 5.68359 13.0332Q6.38672 13.7071 6.38672 14.7618ZM6.38672 25.9825Q6.38672 27.0298 5.68359 27.689Q4.98047 28.3482 3.9917 28.3482Q2.97363 28.3482 2.27783 27.689Q1.58936 27.0298 1.58936 25.9825Q1.58936 24.9278 2.27783 24.2539Q2.97363 23.5801 3.9917 23.5801Q4.98047 23.5801 5.68359 24.2539Q6.38672 24.9278 6.38672 25.9825ZM10.7705 4.47123L14.1909 4.47123L14.1909 33.5118L10.7705 33.5118L10.7705 4.47123Z" style="fill:#000000;" />
        </g>
        <g style="mix-blend-mode:normal;" transform="translate(98 32)">
          <path d="M3.96973 8.36053Q3.86963 8.11883 3.70361 7.75018Q3.54004 7.37908 3.34961 6.94939Q3.15918 6.51971 2.94434 6.06561Q2.72949 5.60906 2.53906 5.20623Q2.35107 4.80096 2.18506 4.48113Q2.01904 4.15887 1.91895 3.99041Q1.80908 5.16961 1.73828 6.54656Q1.66992 7.92107 1.62109 9.32L0.668945 9.32Q0.710449 8.41912 0.759277 7.50603Q0.810547 6.59051 0.874023 5.70672Q0.939941 4.82049 1.01318 3.98064Q1.08887 3.1408 1.1792 2.38885L2.02881 2.38885Q2.2998 2.83074 2.60986 3.43133Q2.91992 4.02947 3.22998 4.68621Q3.54004 5.34051 3.83057 5.9948Q4.12109 6.6491 4.36035 7.19109Q4.59961 6.6491 4.89014 5.9948Q5.18066 5.34051 5.49072 4.68621Q5.80078 4.02947 6.11084 3.43133Q6.4209 2.83074 6.68945 2.38885L7.53906 2.38885Q7.88086 5.7409 8.04932 9.32L7.09961 9.32Q7.05078 7.92107 6.97998 6.54656Q6.90918 5.16961 6.79932 3.99041Q6.69922 4.15887 6.5332 4.48113Q6.36963 4.80096 6.1792 5.20623Q5.98877 5.60906 5.77393 6.06561Q5.55908 6.51971 5.36865 6.94939Q5.18066 7.37908 5.01465 7.75018Q4.85107 8.11883 4.75098 8.36053L3.96973 8.36053ZM8.90043 10.2892Q9.01029 10.3405 9.18363 10.3845Q9.35941 10.4308 9.53031 10.4308Q10.0796 10.4308 10.3897 10.1843Q10.6997 9.94012 10.9512 9.3908Q10.3189 8.18963 9.77445 6.84441Q9.23002 5.4992 8.87113 4.1198L9.86967 4.1198Q9.97953 4.56902 10.1333 5.08904Q10.2896 5.60906 10.48 6.16082Q10.6704 6.71014 10.8902 7.26189Q11.1099 7.81121 11.3492 8.31902Q11.73 7.26922 12.0083 6.24139Q12.2891 5.21111 12.5406 4.1198L13.5 4.1198Q13.1412 5.58953 12.6993 6.94451Q12.2598 8.29949 11.7496 9.48113Q11.5494 9.93035 11.3345 10.2551Q11.1197 10.5798 10.8584 10.7897Q10.5996 10.9997 10.2749 11.0998Q9.95023 11.1999 9.54008 11.1999Q9.43021 11.1999 9.31059 11.1852Q9.19096 11.1706 9.07377 11.1437Q8.95902 11.1193 8.86381 11.09Q8.77104 11.0607 8.72953 11.0412L8.90043 10.2892ZM21.0388 9.32Q20.7605 8.59978 20.4456 7.67449Q20.1306 6.7492 19.8694 5.75066Q19.6106 6.7492 19.3005 7.67449Q18.9905 8.59978 18.7097 9.32L17.8992 9.32Q17.4402 8.28973 16.9983 6.97137Q16.5588 5.65057 16.1707 4.1198L17.1692 4.1198Q17.2693 4.591 17.4085 5.14031Q17.5501 5.68963 17.7039 6.24139Q17.8601 6.7907 18.0286 7.30096Q18.1995 7.81121 18.3508 8.18963Q18.5193 7.72088 18.6829 7.19598Q18.8489 6.67107 18.9978 6.13641Q19.1492 5.5993 19.2835 5.08416Q19.4202 4.56902 19.5203 4.1198L20.2893 4.1198Q20.3796 4.56902 20.509 5.08416Q20.6409 5.5993 20.7898 6.13641Q20.9412 6.67107 21.1047 7.19598Q21.2708 7.72088 21.4392 8.18963Q21.5906 7.81121 21.7542 7.30096Q21.9202 6.7907 22.0789 6.24139Q22.24 5.68963 22.3792 5.14031Q22.5208 4.591 22.6209 4.1198L23.5803 4.1198Q23.1897 5.65057 22.7503 6.97137Q22.3108 8.28973 21.8494 9.32L21.0388 9.32ZM24.2703 6.72967Q24.2703 6.04119 24.4704 5.52605Q24.6706 5.01092 25.0002 4.67156Q25.3298 4.32977 25.7595 4.16131Q26.1892 3.99041 26.6409 3.99041Q27.6907 3.99041 28.2497 4.64471Q28.8088 5.299 28.8088 6.63934Q28.8088 6.70037 28.8088 6.79559Q28.8088 6.8908 28.7991 6.96893L25.2395 6.96893Q25.3005 7.77947 25.7107 8.19939Q26.1208 8.61932 26.99 8.61932Q27.4807 8.61932 27.8152 8.53631Q28.1496 8.45086 28.3205 8.37029L28.4499 9.1491Q28.279 9.23943 27.8542 9.33953Q27.4294 9.43963 26.8899 9.43963Q26.2112 9.43963 25.7156 9.23455Q25.22 9.02947 24.9001 8.67059Q24.5803 8.30926 24.4241 7.81609Q24.2703 7.32049 24.2703 6.72967ZM27.8396 6.21941Q27.8494 5.58953 27.5246 5.18426Q27.1999 4.77898 26.6311 4.77898Q26.3088 4.77898 26.0647 4.90594Q25.8205 5.03045 25.6496 5.23064Q25.4812 5.43084 25.386 5.69207Q25.2908 5.95086 25.259 6.21941L27.8396 6.21941ZM31.081 4.3493Q31.2494 4.23943 31.5937 4.1198Q31.9403 4.00018 32.3895 4.00018Q32.9511 4.00018 33.3856 4.20037Q33.8202 4.40057 34.1205 4.76189Q34.4208 5.12078 34.5746 5.62127Q34.7309 6.11932 34.7309 6.7199Q34.7309 7.34978 34.5453 7.85516Q34.3598 8.36053 34.0204 8.71209Q33.6811 9.06121 33.2001 9.25164Q32.7191 9.43963 32.121 9.43963Q31.4691 9.43963 30.9687 9.3493Q30.4706 9.25896 30.1508 9.17107L30.1508 1.7199L31.081 1.56121L31.081 4.3493ZM31.081 8.50945Q31.2201 8.55096 31.474 8.58514Q31.7304 8.61932 32.1088 8.61932Q32.8607 8.61932 33.31 8.12615Q33.7592 7.63055 33.7592 6.7199Q33.7592 6.31951 33.6786 5.97039Q33.6005 5.61883 33.4198 5.36492Q33.2392 5.11102 32.9535 4.96697Q32.6703 4.82049 32.2699 4.82049Q31.8891 4.82049 31.5692 4.94988Q31.2494 5.07928 31.081 5.22088L31.081 8.50945ZM37.2493 8.65105Q37.8206 8.65105 38.094 8.50213Q38.3699 8.35076 38.3699 8.02117Q38.3699 7.67937 38.0989 7.47918Q37.8303 7.27898 37.2102 7.02996Q36.9099 6.91033 36.634 6.78582Q36.3606 6.65887 36.1604 6.49041Q35.9602 6.31951 35.8406 6.08025Q35.721 5.841 35.721 5.48943Q35.721 4.80096 36.2288 4.39568Q36.739 3.99041 37.6204 3.99041Q37.8401 3.99041 38.0598 4.01482Q38.2796 4.03924 38.47 4.07586Q38.6604 4.11004 38.8045 4.15154Q38.9509 4.19061 39.0291 4.2199L38.8606 5.02068Q38.7092 4.94012 38.3894 4.85467Q38.0696 4.76922 37.6204 4.76922Q37.2297 4.76922 36.9392 4.92547Q36.6511 5.07928 36.6511 5.40887Q36.6511 5.57977 36.7146 5.7116Q36.7805 5.841 36.9148 5.94598Q37.0491 6.05096 37.2493 6.14129Q37.4495 6.22918 37.7302 6.32928Q38.0989 6.47088 38.3894 6.60516Q38.6799 6.73943 38.885 6.9201Q39.0901 7.10076 39.2 7.35711Q39.3098 7.61102 39.3098 7.97967Q39.3098 8.69988 38.7752 9.07098Q38.2405 9.43963 37.2493 9.43963Q36.5608 9.43963 36.1702 9.32488Q35.7796 9.21014 35.6404 9.1491L35.8088 8.35076Q35.97 8.40936 36.3191 8.53143Q36.6707 8.65105 37.2493 8.65105ZM41.431 9.32L40.5008 9.32L40.5008 4.1198L41.431 4.1198L41.431 9.32ZM40.9598 3.17986Q40.7107 3.17986 40.535 3.01629Q40.3592 2.85027 40.3592 2.56951Q40.3592 2.29119 40.535 2.12518Q40.7107 1.95916 40.9598 1.95916Q41.2088 1.95916 41.3846 2.12518Q41.5604 2.29119 41.5604 2.56951Q41.5604 2.85027 41.3846 3.01629Q41.2088 3.17986 40.9598 3.17986ZM43.8999 4.1198L45.8701 4.1198L45.8701 4.90105L43.8999 4.90105L43.8999 7.30096Q43.8999 7.68914 43.9585 7.94549Q44.0196 8.19939 44.1392 8.34588Q44.2588 8.48992 44.4395 8.55096Q44.6201 8.60955 44.8594 8.60955Q45.2793 8.60955 45.5332 8.51434Q45.7896 8.41912 45.8897 8.38006L46.0703 9.1491Q45.9312 9.2199 45.5796 9.32488Q45.2305 9.42986 44.7788 9.42986Q44.249 9.42986 43.9048 9.29559Q43.5606 9.15887 43.3506 8.89031Q43.1406 8.61932 43.0552 8.22625Q42.9697 7.83074 42.9697 7.31072L42.9697 2.66961L43.8999 2.51092L43.8999 4.1198ZM46.6603 6.72967Q46.6603 6.04119 46.8604 5.52605Q47.0606 5.01092 47.3902 4.67156Q47.7198 4.32977 48.1495 4.16131Q48.5792 3.99041 49.0309 3.99041Q50.0807 3.99041 50.6397 4.64471Q51.1988 5.299 51.1988 6.63934Q51.1988 6.70037 51.1988 6.79559Q51.1988 6.8908 51.1891 6.96893L47.6295 6.96893Q47.6905 7.77947 48.1007 8.19939Q48.5108 8.61932 49.38 8.61932Q49.8707 8.61932 50.2052 8.53631Q50.5396 8.45086 50.7105 8.37029L50.8399 9.1491Q50.669 9.23943 50.2442 9.33953Q49.8194 9.43963 49.2799 9.43963Q48.6012 9.43963 48.1056 9.23455Q47.61 9.02947 47.2901 8.67059Q46.9703 8.30926 46.8141 7.81609Q46.6603 7.32049 46.6603 6.72967ZM50.2296 6.21941Q50.2394 5.58953 49.9146 5.18426Q49.5899 4.77898 49.0211 4.77898Q48.6988 4.77898 48.4547 4.90594Q48.2105 5.03045 48.0396 5.23064Q47.8712 5.43084 47.776 5.69207Q47.6808 5.95086 47.649 6.21941L50.2296 6.21941Z" style="fill:#000000;" />
        </g>
      </g>
    </g>
  </g>
</svg>